<svg style="transform: rotate(180deg); opacity: .3" xmlns="http://www.w3.org/2000/svg" width="50" height="50" viewBox="0 0 50 50" fill="none">
    <g clip-path="url(#clip0_1733_86)">
        <path d="M50.3786 25.0408H35.8113C35.8113 32.2421 31.5557 38.3795 25.4178 41.1618C23.2081 42.1438 20.753 42.7167 18.1341 42.7167C10.3595 42.7167 3.73053 37.643 1.35721 30.6054H1.11169C3.73053 41.6528 13.5512 49.9179 25.4178 49.9179C38.7575 49.9179 49.642 39.4433 50.2967 26.3501V25.9409C50.3786 25.6954 50.3786 25.3681 50.3786 25.0408Z" fill="#302D2E"/>
        <path d="M50.3786 25.0408H35.8113C35.8113 32.2421 31.5557 38.3795 25.4178 41.1618C23.2081 42.1438 20.753 42.7167 18.1341 42.7167C10.3595 42.7167 3.73053 37.643 1.35721 30.6054H1.11169C3.73053 41.6528 13.5512 49.9179 25.4178 49.9179C38.7575 49.9179 49.642 39.4433 50.2967 26.3501V25.9409C50.3786 25.6954 50.3786 25.3681 50.3786 25.0408Z" fill="url(#paint0_radial_1733_86)"/>
        <path d="M25.4177 0C11.6688 0 0.538748 11.0474 0.456909 24.7135V25.0408H14.9424C14.9424 17.8396 19.198 11.7021 25.3359 8.91978C27.6273 7.93778 30.0825 7.36495 32.6195 7.36495C40.3942 7.36495 47.0231 12.4386 49.3964 19.4762H49.7238C47.2686 8.34695 37.2843 0 25.4177 0Z" fill="#E63F35"/>
        <path d="M25.4177 0C11.6688 0 0.538748 11.0474 0.456909 24.7135V25.0408H14.9424C14.9424 17.8396 19.198 11.7021 25.3359 8.91978C27.6273 7.93778 30.0825 7.36495 32.6195 7.36495C40.3942 7.36495 47.0231 12.4386 49.3964 19.4762H49.7238C47.2686 8.34695 37.2843 0 25.4177 0Z" fill="url(#paint1_radial_1733_86)"/>
        <path d="M33.6015 25.0408C33.6015 31.0964 30.328 36.4155 25.4177 39.2797C24.8448 39.607 24.1901 39.9343 23.6172 40.1798C21.5713 41.08 19.3616 41.571 17.0701 41.571C9.86834 41.571 3.81228 36.9884 1.52079 30.6054H1.35712C3.73044 37.643 10.3594 42.7167 18.134 42.7167C20.7529 42.7167 23.208 42.1438 25.4177 41.1618C31.5556 38.3795 35.8112 32.2421 35.8112 25.0408H33.6015Z" fill="url(#paint2_radial_1733_86)"/>
        <g opacity="0.2">
            <path d="M35.8112 25.0411C35.8112 32.2424 31.5556 38.3798 25.4177 41.1621C23.208 42.1441 20.7529 42.717 18.134 42.717C10.3594 42.717 3.73044 37.7251 1.35712 30.6875C3.73044 37.807 10.4412 42.8806 18.3796 42.8806C20.9984 42.8806 23.4536 42.3078 25.745 41.3258C31.9648 38.5435 36.3022 32.2423 36.3022 24.9592H35.8112V25.0411Z" fill="white"/>
        </g>
        <g opacity="0.2">
            <path d="M14.9428 25.041C14.9428 17.8397 19.1984 11.7023 25.3363 8.91995C27.6278 7.93796 30.0829 7.36513 32.7017 7.36513C40.4764 7.36513 47.1054 12.3569 49.4787 19.3946C47.0235 12.2751 40.3946 7.11963 32.4562 7.11963C29.8374 7.11963 27.3822 7.69246 25.0908 8.67445C18.871 11.4568 14.5336 17.7579 14.5336 25.041H14.9428Z" fill="white"/>
        </g>
        <path d="M32.62 7.36523C30.0012 7.36523 27.546 7.93806 25.3364 8.92006C19.1985 11.7024 14.9429 17.8398 14.9429 25.0411H17.1525C17.1525 18.9037 20.4261 13.5845 25.3364 10.7204C25.9092 10.393 26.4821 10.0657 27.055 9.82022C29.101 8.92006 31.3106 8.42906 33.6839 8.42906C40.8857 8.42906 47.0236 13.0117 49.3151 19.4765H49.3969C47.1055 12.4389 40.4765 7.36523 32.62 7.36523Z" fill="url(#paint3_radial_1733_86)"/>
    </g>
    <defs>
        <radialGradient id="paint0_radial_1733_86" cx="0" cy="0" r="1" gradientUnits="userSpaceOnUse" gradientTransform="translate(6.36222 28.6437) scale(34.1197 34.1172)">
            <stop/>
            <stop offset="1" stop-color="#262626" stop-opacity="0"/>
        </radialGradient>
        <radialGradient id="paint1_radial_1733_86" cx="0" cy="0" r="1" gradientUnits="userSpaceOnUse" gradientTransform="translate(45.8577 17.0419) scale(39.8581 39.8553)">
            <stop stop-color="#C23B2E"/>
            <stop offset="1" stop-color="#E63F35" stop-opacity="0"/>
        </radialGradient>
        <radialGradient id="paint2_radial_1733_86" cx="0" cy="0" r="1" gradientUnits="userSpaceOnUse" gradientTransform="translate(9.12835 38.0175) scale(58.1263 58.1222)">
            <stop/>
            <stop offset="1" stop-color="#5E5E5E"/>
        </radialGradient>
        <radialGradient id="paint3_radial_1733_86" cx="0" cy="0" r="1" gradientUnits="userSpaceOnUse" gradientTransform="translate(39.4805 17.7336) scale(39.7511 39.7482)">
            <stop stop-color="#C23B2E"/>
            <stop offset="1" stop-color="#E63E32"/>
        </radialGradient>
        <clipPath id="clip0_1733_86">
            <rect width="50" height="50" fill="white"/>
        </clipPath>
    </defs>
</svg>