<svg width="24" height="24" viewBox="0 0 24 24" fill="none" xmlns="http://www.w3.org/2000/svg">
<g id="Instagram">
<path id="Combined-Shape" fill-rule="evenodd" clip-rule="evenodd" d="M12 0C5.37258 0 0 5.37258 0 12C0 18.6274 5.37258 24 12 24C18.6274 24 24 18.6274 24 12C24 5.37258 18.6274 0 12 0ZM9.36223 5.63876C10.0449 5.6077 10.263 5.6001 12.0012 5.6001H11.9992C13.7379 5.6001 13.9552 5.6077 14.6379 5.63876C15.3192 5.66997 15.7846 5.77783 16.1926 5.9361C16.6139 6.09944 16.9699 6.3181 17.3259 6.67411C17.6819 7.02985 17.9006 7.38692 18.0646 7.80785C18.2219 8.21479 18.3299 8.67986 18.3619 9.3612C18.3926 10.0439 18.4006 10.262 18.4006 12.0002C18.4006 13.7383 18.3926 13.9559 18.3619 14.6386C18.3299 15.3197 18.2219 15.7849 18.0646 16.1919C17.9006 16.6127 17.6819 16.9698 17.3259 17.3255C16.9703 17.6816 16.6138 17.9008 16.193 18.0642C15.7858 18.2225 15.3202 18.3304 14.6388 18.3616C13.9561 18.3926 13.7387 18.4002 12.0004 18.4002C10.2624 18.4002 10.0444 18.3926 9.36169 18.3616C8.68048 18.3304 8.21528 18.2225 7.80808 18.0642C7.3874 17.9008 7.03033 17.6816 6.67473 17.3255C6.31886 16.9698 6.10019 16.6127 5.93659 16.1918C5.77845 15.7849 5.67059 15.3198 5.63925 14.6385C5.60832 13.9558 5.60059 13.7383 5.60059 12.0002C5.60059 10.262 5.60859 10.0437 5.63912 9.36107C5.66979 8.68 5.77779 8.21479 5.93646 7.80772C6.10046 7.38692 6.31913 7.02985 6.67513 6.67411C7.03087 6.31824 7.38794 6.09957 7.80888 5.9361C8.21581 5.77783 8.68089 5.66997 9.36223 5.63876Z" fill="white"/>
<path id="Combined-Shape_2" fill-rule="evenodd" clip-rule="evenodd" d="M11.4265 6.75306C11.538 6.75289 11.6579 6.75294 11.7873 6.753L12.0006 6.75306C13.7094 6.75306 13.912 6.7592 14.5868 6.78987C15.2108 6.8184 15.5495 6.92267 15.7751 7.01027C16.0737 7.12627 16.2867 7.26494 16.5105 7.48894C16.7345 7.71294 16.8732 7.92628 16.9895 8.22495C17.0771 8.45028 17.1815 8.78895 17.2099 9.41296C17.2405 10.0876 17.2472 10.2903 17.2472 11.9983C17.2472 13.7063 17.2405 13.909 17.2099 14.5837C17.1813 15.2077 17.0771 15.5464 16.9895 15.7717C16.8735 16.0704 16.7345 16.283 16.5105 16.5069C16.2865 16.7309 16.0739 16.8696 15.7751 16.9856C15.5497 17.0736 15.2108 17.1776 14.5868 17.2061C13.9121 17.2368 13.7094 17.2434 12.0006 17.2434C10.2917 17.2434 10.0891 17.2368 9.41447 17.2061C8.79046 17.1773 8.45179 17.073 8.22605 16.9854C7.92738 16.8694 7.71405 16.7308 7.49005 16.5068C7.26604 16.2828 7.12738 16.07 7.01111 15.7712C6.92351 15.5458 6.81911 15.2072 6.79071 14.5831C6.76004 13.9085 6.75391 13.7058 6.75391 11.9967C6.75391 10.2876 6.76004 10.086 6.79071 9.41136C6.81924 8.78735 6.92351 8.44868 7.01111 8.22308C7.12711 7.92441 7.26604 7.71107 7.49005 7.48707C7.71405 7.26307 7.92738 7.1244 8.22605 7.00813C8.45166 6.92013 8.79046 6.81613 9.41447 6.78747C10.0049 6.7608 10.2337 6.7528 11.4265 6.75146V6.75306ZM15.4174 7.8157C14.9934 7.8157 14.6494 8.1593 14.6494 8.58344C14.6494 9.00744 14.9934 9.35144 15.4174 9.35144C15.8414 9.35144 16.1854 9.00744 16.1854 8.58344C16.1854 8.15943 15.8414 7.81543 15.4174 7.81543V7.8157ZM8.71387 11.9996C8.71387 10.1846 10.1854 8.71296 12.0004 8.71289C13.8155 8.71289 15.2867 10.1845 15.2867 11.9996C15.2867 13.8147 13.8157 15.2856 12.0006 15.2856C10.1855 15.2856 8.71387 13.8147 8.71387 11.9996Z" fill="white"/>
<path id="Shape" d="M12.0005 9.86621C13.1787 9.86621 14.1339 10.8213 14.1339 11.9996C14.1339 13.1777 13.1787 14.1329 12.0005 14.1329C10.8223 14.1329 9.86719 13.1777 9.86719 11.9996C9.86719 10.8213 10.8223 9.86621 12.0005 9.86621Z" fill="white"/>
</g>
</svg>
