<svg width="34" height="34" viewBox="0 0 34 34" fill="none" xmlns="http://www.w3.org/2000/svg">
<g clip-path="url(#clip0_1729_196)">
<path d="M34.2574 17.0278H24.3516C24.3516 21.9247 21.4578 26.0982 17.2841 27.9902C15.7815 28.6579 14.112 29.0474 12.3312 29.0474C7.0444 29.0474 2.53673 25.5974 0.922871 20.8118H0.75592C2.53673 28.324 9.21476 33.9443 17.2841 33.9443C26.355 33.9443 33.7565 26.8216 34.2017 17.9182V17.6399C34.2574 17.473 34.2574 17.2504 34.2574 17.0278Z" fill="#302D2E"/>
<path d="M34.2574 17.0278H24.3516C24.3516 21.9247 21.4578 26.0982 17.2841 27.9902C15.7815 28.6579 14.112 29.0474 12.3312 29.0474C7.0444 29.0474 2.53673 25.5974 0.922871 20.8118H0.75592C2.53673 28.324 9.21476 33.9443 17.2841 33.9443C26.355 33.9443 33.7565 26.8216 34.2017 17.9182V17.6399C34.2574 17.473 34.2574 17.2504 34.2574 17.0278Z" fill="url(#paint0_radial_1729_196)"/>
<path d="M17.2841 0C7.93482 0 0.36638 7.51225 0.31073 16.8052V17.0278H10.1608C10.1608 12.1309 13.0546 7.95742 17.2284 6.06545C18.7866 5.39769 20.4561 5.00817 22.1813 5.00817C27.4681 5.00817 31.9757 8.45824 33.5896 13.2438H33.8122C32.1427 5.67592 25.3534 0 17.2841 0Z" fill="#E63F35"/>
<path d="M17.2841 0C7.93482 0 0.36638 7.51225 0.31073 16.8052V17.0278H10.1608C10.1608 12.1309 13.0546 7.95742 17.2284 6.06545C18.7866 5.39769 20.4561 5.00817 22.1813 5.00817C27.4681 5.00817 31.9757 8.45824 33.5896 13.2438H33.8122C32.1427 5.67592 25.3534 0 17.2841 0Z" fill="url(#paint1_radial_1729_196)"/>
<path d="M22.8491 17.0278C22.8491 21.1457 20.6231 24.7627 17.284 26.7103C16.8945 26.9329 16.4493 27.1555 16.0597 27.3224C14.6685 27.9345 13.1659 28.2684 11.6077 28.2684C6.71048 28.2684 2.59236 25.1522 1.03415 20.8118H0.922852C2.53671 25.5974 7.04438 29.0474 12.3312 29.0474C14.112 29.0474 15.7815 28.6579 17.284 27.9902C21.4578 26.0982 24.3516 21.9247 24.3516 17.0278H22.8491Z" fill="url(#paint2_radial_1729_196)"/>
<g opacity="0.2">
<path d="M24.3516 17.0278C24.3516 21.9247 21.4578 26.0982 17.284 27.9901C15.7815 28.6579 14.112 29.0474 12.3312 29.0474C7.04438 29.0474 2.53671 25.653 0.922852 20.8674C2.53671 25.7086 7.10003 29.1587 12.4981 29.1587C14.2789 29.1587 15.9484 28.7692 17.5066 28.1014C21.7361 26.2095 24.6855 21.9247 24.6855 16.9722H24.3516V17.0278Z" fill="white"/>
</g>
<g opacity="0.2">
<path d="M10.1611 17.0279C10.1611 12.131 13.0549 7.9575 17.2286 6.06553C18.7869 5.39777 20.4564 5.00825 22.2372 5.00825C27.524 5.00825 32.0316 8.40267 33.6455 13.1883C31.976 8.34703 27.4683 4.84131 22.0702 4.84131C20.2894 4.84131 18.6199 5.23083 17.0617 5.89859C12.8323 7.79056 9.88281 12.0753 9.88281 17.0279H10.1611Z" fill="white"/>
</g>
<path d="M22.1816 5.0083C20.4008 5.0083 18.7313 5.39782 17.2287 6.06558C13.0549 7.95756 10.1611 12.131 10.1611 17.0279H11.6637C11.6637 12.8544 13.8897 9.23742 17.2287 7.2898C17.6183 7.06721 18.0078 6.84463 18.3974 6.67769C19.7886 6.06558 21.2912 5.7317 22.905 5.7317C27.8023 5.7317 31.976 8.8479 33.5342 13.244H33.5899C32.0317 8.45837 27.524 5.0083 22.1816 5.0083Z" fill="url(#paint3_radial_1729_196)"/>
</g>
<defs>
<radialGradient id="paint0_radial_1729_196" cx="0" cy="0" r="1" gradientUnits="userSpaceOnUse" gradientTransform="translate(4.32627 19.4778) scale(23.2014 23.1997)">
<stop/>
<stop offset="1" stop-color="#262626" stop-opacity="0"/>
</radialGradient>
<radialGradient id="paint1_radial_1729_196" cx="0" cy="0" r="1" gradientUnits="userSpaceOnUse" gradientTransform="translate(31.1833 11.5885) scale(27.1035 27.1016)">
<stop stop-color="#C23B2E"/>
<stop offset="1" stop-color="#E63F35" stop-opacity="0"/>
</radialGradient>
<radialGradient id="paint2_radial_1729_196" cx="0" cy="0" r="1" gradientUnits="userSpaceOnUse" gradientTransform="translate(6.20729 25.852) scale(39.5259 39.5231)">
<stop/>
<stop offset="1" stop-color="#5E5E5E"/>
</radialGradient>
<radialGradient id="paint3_radial_1729_196" cx="0" cy="0" r="1" gradientUnits="userSpaceOnUse" gradientTransform="translate(26.8468 12.0588) scale(27.0307 27.0288)">
<stop stop-color="#C23B2E"/>
<stop offset="1" stop-color="#E63E32"/>
</radialGradient>
<clipPath id="clip0_1729_196">
<rect width="34" height="34" fill="white"/>
</clipPath>
</defs>
</svg>
