<svg width="24" height="24" viewBox="0 0 24 24" fill="none" xmlns="http://www.w3.org/2000/svg">
<g id="VK">
<path id="Combined-Shape" fill-rule="evenodd" clip-rule="evenodd" d="M12 0C5.37258 0 0 5.37258 0 12C0 18.6274 5.37258 24 12 24C18.6274 24 24 18.6274 24 12C24 5.37258 18.6274 0 12 0ZM12.9777 15.7879C12.8593 15.9126 12.6283 15.9378 12.6283 15.9378H11.8633C11.8633 15.9378 10.1755 16.0374 8.68859 14.5183C7.06713 12.8609 5.63536 9.57257 5.63536 9.57257C5.63536 9.57257 5.55272 9.35687 5.64224 9.25302C5.74304 9.13564 6.01787 9.12827 6.01787 9.12827L7.84656 9.11659C7.84656 9.11659 8.01872 9.14425 8.14205 9.23335C8.2441 9.3071 8.30107 9.44414 8.30107 9.44414C8.30107 9.44414 8.59657 10.1779 8.98785 10.8416C9.75225 12.1376 10.1078 12.4209 10.367 12.282C10.7452 12.0798 10.6318 10.4501 10.6318 10.4501C10.6318 10.4501 10.6387 9.85894 10.4415 9.59531C10.2888 9.39129 10.0008 9.33168 9.8737 9.31509C9.77041 9.30157 9.93944 9.06682 10.1586 8.96173C10.4879 8.8038 11.0688 8.79458 11.7556 8.80134C12.2909 8.80687 12.4449 8.83944 12.654 8.88922C13.1393 9.00417 13.1241 9.37257 13.0914 10.1676C13.0817 10.4054 13.0703 10.6814 13.0703 11.0001C13.0703 11.0717 13.0682 11.1481 13.066 11.2266C13.0546 11.634 13.0417 12.1004 13.3151 12.274C13.4553 12.3625 13.7978 12.2869 14.6548 10.8588C15.0611 10.1816 15.3654 9.38576 15.3654 9.38576C15.3654 9.38576 15.4324 9.2438 15.5357 9.18296C15.6415 9.1209 15.7842 9.13995 15.7842 9.13995L17.7087 9.12827C17.7087 9.12827 18.2872 9.06006 18.3805 9.31693C18.4787 9.58548 18.1645 10.2135 17.3781 11.2422C16.6323 12.2183 16.2693 12.5777 16.3026 12.8956C16.3269 13.1278 16.5629 13.3379 17.0157 13.7501C17.9609 14.6115 18.2142 15.0647 18.2751 15.1736C18.2801 15.1827 18.2839 15.1893 18.2865 15.1937C18.7104 15.8838 17.8164 15.9378 17.8164 15.9378L16.1066 15.9612C16.1066 15.9612 15.7398 16.0325 15.2565 15.7068C15.0033 15.5363 14.7559 15.2579 14.5203 14.9927C14.1604 14.5877 13.828 14.2136 13.5442 14.302C13.0678 14.4507 13.0822 15.4579 13.0822 15.4579C13.0822 15.4579 13.086 15.6736 12.9777 15.7879Z" fill="white"/>
</g>
</svg>
